<svg width="36" height="36" viewBox="0 0 36 36" fill="none" xmlns="http://www.w3.org/2000/svg">
<g clip-path="url(#clip0_1_2)">
<rect x="6" y="6" width="23" height="23" fill="white"/>
<path d="M13.553 16.9191V22.9698C13.553 24.0498 12.7767 24.9257 11.8193 24.9241L9.00064 24.9183L9.01546 17.9144V17.688C9.03933 15.9362 10.4651 14.8199 11.7815 15.2851C12.1009 15.3987 12.3873 15.6094 12.6244 15.8761L13.553 16.9191Z" fill="url(#paint0_linear_1_2)"/>
<path d="M20.4392 17.3669V11.0364C20.4392 9.95554 21.2163 9.07963 22.1737 9.0821L24.9924 9.08704L24.9776 16.3717V16.5972C24.9529 18.3498 23.5271 19.4661 22.2116 19.0002C21.8913 18.8874 21.6057 18.6767 21.3686 18.4099L20.4392 17.3669Z" fill="url(#paint1_linear_1_2)"/>
<path d="M24.9727 16.1158V21.4C24.9858 23.9462 22.6347 25.6692 20.785 24.5924C20.5602 24.4615 20.3577 24.2878 20.175 24.0911L14.4306 17.9038L13.553 16.9192L12.6244 15.8762C12.3874 15.6095 12.1009 15.3987 11.7815 15.2851C10.4652 14.82 9.03935 15.9363 9.01547 17.6881V17.6297L9.01382 13.1917V12.4623C9.01382 9.71116 11.7461 8.16353 13.6197 9.85605L21.1554 18.0882C21.3365 18.2866 21.5522 18.4537 21.7983 18.5624C23.2126 19.1913 24.9727 17.9721 24.9727 16.1158Z" fill="url(#paint2_linear_1_2)"/>
<path d="M24.9727 21.0534V21.4C24.9858 23.9462 22.6347 25.6692 20.785 24.5924C20.5602 24.4615 20.3577 24.2878 20.175 24.0911L14.4306 17.9038L13.553 16.9192L12.6244 15.8762C12.3874 15.6095 12.1009 15.3987 11.7815 15.2851C10.4652 14.82 9.03935 15.9363 9.01547 17.6881V17.6297L9.01382 13.1917V13.1291C9.35793 11.5198 11.1863 10.8151 12.3297 12.0532L21.6543 22.1409C22.801 23.3823 24.6351 22.6694 24.9727 21.0534Z" fill="url(#paint3_linear_1_2)"/>
<path d="M26.0564 29.3541L26.3827 28.1019H25.0887H6.58778C6.20493 28.1019 5.88619 27.7841 5.88619 27.3994V6.58778C5.88619 6.20491 6.20488 5.88621 6.58778 5.88621H27.4003C27.7843 5.88621 28.1027 6.20521 28.1027 6.58778V25.1224V26.405L29.3465 26.0922C29.7035 26.0025 30.0768 25.9545 30.4626 25.9545C30.8971 25.9545 31.3155 26.0159 31.7124 26.1297L32.9881 26.4957V25.1685V5.63368C32.9881 3.08246 30.9052 1 28.3536 1H5.63449C3.08276 1 1 3.08248 1 5.63368V28.3544C1 30.9046 3.08263 32.988 5.63449 32.988H25.1101H26.4233L26.0741 31.7221C25.9671 31.3343 25.9092 30.9282 25.9092 30.5079C25.9092 30.1076 25.9607 29.7214 26.0564 29.3541Z" fill="url(#paint4_linear_1_2)" stroke="white" stroke-width="2"/>
<path d="M30.4626 35C32.9437 35 34.9547 32.989 34.9547 30.5079C34.9547 28.0271 32.944 26.015 30.4626 26.015C27.9815 26.015 25.9697 28.0268 25.9697 30.5079C25.9697 32.9893 27.9818 35 30.4626 35Z" fill="url(#paint5_linear_1_2)" stroke="white" stroke-width="2"/>
</g>
<defs>
<linearGradient id="paint0_linear_1_2" x1="10.7088" y1="20.4499" x2="1.65098" y2="25.2575" gradientUnits="userSpaceOnUse">
<stop stop-color="#4351E8"/>
<stop offset="1" stop-color="#2A1EA5"/>
</linearGradient>
<linearGradient id="paint1_linear_1_2" x1="23.0323" y1="13.8436" x2="32.9302" y2="17.3147" gradientUnits="userSpaceOnUse">
<stop stop-color="#4351E8"/>
<stop offset="1" stop-color="#2A1EA5"/>
</linearGradient>
<linearGradient id="paint2_linear_1_2" x1="11.309" y1="17.4782" x2="28.6077" y2="16.1134" gradientUnits="userSpaceOnUse">
<stop stop-color="#4351E8"/>
<stop offset="1" stop-color="#2A1EA5"/>
</linearGradient>
<linearGradient id="paint3_linear_1_2" x1="4.53307" y1="12.1932" x2="23.6321" y2="21.8129" gradientUnits="userSpaceOnUse">
<stop stop-color="#4351E8"/>
<stop offset="1" stop-color="#2A1EA5"/>
</linearGradient>
<linearGradient id="paint4_linear_1_2" x1="8.02593" y1="8.06874" x2="35.3661" y2="35.2781" gradientUnits="userSpaceOnUse">
<stop stop-color="#4351E8"/>
<stop offset="1" stop-color="#2A1EA5"/>
</linearGradient>
<linearGradient id="paint5_linear_1_2" x1="35.1311" y1="33.2706" x2="25.9283" y2="27.824" gradientUnits="userSpaceOnUse">
<stop stop-color="#ED0029"/>
<stop offset="1" stop-color="#F43760"/>
</linearGradient>
<clipPath id="clip0_1_2">
<rect width="36" height="36" rx="4" fill="white"/>
</clipPath>
</defs>
</svg>
